<?xml version="1.0" encoding="UTF-8" standalone="no"?>
<!-- Generator: Adobe Illustrator 15.0.0, SVG Export Plug-In . SVG Version: 6.00 Build 0)  -->

<svg
   xmlns:dc="http://purl.org/dc/elements/1.1/"
   xmlns:cc="http://creativecommons.org/ns#"
   xmlns:rdf="http://www.w3.org/1999/02/22-rdf-syntax-ns#"
   xmlns:svg="http://www.w3.org/2000/svg"
   xmlns="http://www.w3.org/2000/svg"
   xmlns:sodipodi="http://sodipodi.sourceforge.net/DTD/sodipodi-0.dtd"
   xmlns:inkscape="http://www.inkscape.org/namespaces/inkscape"
   version="1.1"
   id="Layer_1"
   x="0px"
   y="0px"
   width="64"
   height="64"
   viewBox="0 0 64 64"
   xml:space="preserve"
   sodipodi:docname="ICON.svg"
   inkscape:version="0.92.4 (5da689c313, 2019-01-14)"
   inkscape:export-filename=".\ICON.png"
   inkscape:export-xdpi="96.000008"
   inkscape:export-ydpi="96.000008"><metadata
   id="metadata833"><rdf:RDF><cc:Work
       rdf:about=""><dc:format>image/svg+xml</dc:format><dc:type
         rdf:resource="http://purl.org/dc/dcmitype/StillImage" /><dc:title></dc:title></cc:Work></rdf:RDF></metadata><defs
   id="defs831" /><sodipodi:namedview
   pagecolor="#ffffff"
   bordercolor="#666666"
   borderopacity="1"
   objecttolerance="10"
   gridtolerance="10"
   guidetolerance="10"
   inkscape:pageopacity="0"
   inkscape:pageshadow="2"
   inkscape:window-width="1842"
   inkscape:window-height="1051"
   id="namedview829"
   showgrid="false"
   inkscape:pagecheckerboard="true"
   inkscape:zoom="11.289474"
   inkscape:cx="12.934091"
   inkscape:cy="28.666221"
   inkscape:window-x="-9"
   inkscape:window-y="-9"
   inkscape:window-maximized="1"
   inkscape:current-layer="Layer_1" />


<g
   id="g846"><path
     sodipodi:nodetypes="scssccsssccsscs"
     class="st0"
     d="m 31.999106,64 c -1.926451,0 -5.718593,-3.138078 -6.660374,-4.133471 -1.529724,-1.619077 -2.274929,-3.774272 -2.274929,-6.588892 v -8.935303 c 0,-4.796471 -2.15162,-7.323375 -4.64457,-10.247006 -0.807751,-0.947142 -1.642309,-1.928238 -2.417893,-3.00941 -2.394661,-3.347164 -3.6599,-7.298355 -3.6599,-11.426465 0,-10.8385227 8.819144,-19.65766681 19.657666,-19.65766681 10.838523,0 19.657667,8.81914411 19.657667,19.65766681 0,4.124536 -1.267026,8.075727 -3.663474,11.428252 -0.773797,1.081172 -1.608355,2.062268 -2.417893,3.012985 -2.489376,2.920057 -4.640997,5.445173 -4.640997,10.241644 v 8.933516 c 0,2.81462 -0.743417,4.969815 -2.274928,6.590679 C 37.7177,60.861922 33.925558,64 31.999106,64 Z"
     style="opacity:0.8;fill:#ffffff;fill-opacity:1;stroke-width:1.78706062"
     id="path841"
     inkscape:connector-curvature="0" /><path
     inkscape:connector-curvature="0"
     style="fill:#f7c768;stroke-width:1.78706062"
     d="m 32.002681,35.303381 c -1.522576,-3.588417 -3.727809,-6.176081 -5.421942,-8.163293 -0.721973,-0.847066 -1.345657,-1.577974 -1.858543,-2.294585 -1.084746,-1.515428 -1.658393,-3.309637 -1.658393,-5.18605 0,-4.926926 4.008377,-8.935303 8.935303,-8.935303 4.926927,0 8.935303,4.008377 8.935303,8.935303 0,1.872839 -0.573646,3.668835 -1.663753,5.189624 -0.507525,0.709463 -1.127635,1.438584 -1.844246,2.283863 -1.667328,1.955045 -3.888644,4.562366 -5.423729,8.170441 z m 8.931728,10.824226 v -1.785273 c 0,-4.796471 2.151621,-7.321587 4.642784,-10.243432 0.807751,-0.948929 1.644096,-1.930025 2.417893,-3.012984 C 50.391534,27.733393 51.65856,23.783989 51.65856,19.657666 51.65856,8.8191432 42.839416,-8.678e-7 32.000894,-8.678e-7 21.162371,-8.678e-7 12.343227,8.8191432 12.343227,19.657666 c 0,4.129897 1.265239,8.079301 3.661687,11.428252 0.773797,1.079385 1.608355,2.060481 2.417893,3.00941 2.489376,2.923631 4.640996,5.450535 4.640996,10.247006 v 1.78706 z"
     class="stshockcolor"
     id="268154934_shock_x5F_color_grid" /><path
     inkscape:connector-curvature="0"
     id="path826"
     style="opacity:0.8;fill:#000000;stroke-width:1.78706062;fill-opacity:1"
     d="m 31.999106,64 c -1.926451,0 -5.718593,-3.138078 -6.660374,-4.133471 -1.529724,-1.619077 -2.274929,-3.774272 -2.274929,-6.588892 v -8.935303 c 0,-4.796471 -2.15162,-7.323375 -4.64457,-10.247006 -0.807751,-0.947142 -1.642309,-1.928238 -2.417893,-3.00941 -2.394661,-3.347164 -3.6599,-7.298355 -3.6599,-11.426465 0,-10.8385227 8.819144,-19.65766681 19.657666,-19.65766681 10.838523,0 19.657667,8.81914411 19.657667,19.65766681 0,4.124536 -1.267026,8.075727 -3.663474,11.428252 -0.773797,1.081172 -1.608355,2.062268 -2.417893,3.012985 -2.489376,2.920057 -4.640997,5.445173 -4.640997,10.241644 v 8.933516 c 0,2.81462 -0.743417,4.969815 -2.274928,6.590679 C 37.7177,60.861922 33.925558,64 31.999106,64 Z m 0,-60.4240926 c -8.867394,0 -16.083545,7.2161506 -16.083545,16.0835456 0,3.379331 1.036495,6.610337 2.993327,9.346327 0.686231,0.957864 1.436796,1.838885 2.230251,2.771731 2.578729,3.023706 5.498786,6.453076 5.498786,12.564823 v 8.935303 c 0,1.883562 0.412811,3.197051 1.299193,4.133471 0.948929,1.006115 3.172032,2.569793 4.063776,2.961159 0.889956,-0.389579 3.111272,-1.955044 4.061988,-2.959372 0.884595,-0.939994 1.297406,-2.253483 1.297406,-4.137045 v -7.146456 h -7.148242 v -3.574121 h 7.235808 c 0.503951,-5.018066 3.093402,-8.059643 5.407646,-10.774188 0.793455,-0.932846 1.54402,-1.815654 2.230251,-2.775305 1.960406,-2.741351 2.996901,-5.972357 2.996901,-9.346327 0,-8.869182 -7.214364,-16.0835456 -16.083546,-16.0835456 z"
     class="st0" /></g>
</svg>